HIERARCHY
ROOT pelvis
{
  OFFSET 0 100 0
  CHANNELS 6 Xposition Yposition Zposition Zrotation Xrotation Yrotation
  JOINT pelvis_right_femur
  {
    OFFSET -10.78128 -3.44521 -0.5502486
    CHANNELS 3 Zrotation Xrotation Yrotation
    JOINT right_femur_tibia
    {
      OFFSET -0.8047443 -44.0398 -0.1307829
      CHANNELS 3 Zrotation Xrotation Yrotation
      JOINT right_tibia_foot
      {
        OFFSET 3.006224 -47.83518 -5
        CHANNELS 3 Zrotation Xrotation Yrotation
        End Site
        {
          OFFSET 0 -5 15
        }
      }
    }
  }
  JOINT pelvis_left_femur
  {
    OFFSET 10.78128 -3.44521 -0.5502486
    CHANNELS 3 Zrotation Xrotation Yrotation
    JOINT left_femur_tibia
    {
      OFFSET 0.8047443 -44.0398 -0.1307829
      CHANNELS 3 Zrotation Xrotation Yrotation
      JOINT left_tibia_foot
      {
        OFFSET -4.370144 -48.10324 -4.275266
        CHANNELS 3 Zrotation Xrotation Yrotation
        End Site
        {
          OFFSET 0 -5 15
        }
      }
    }
  }
  JOINT pelvis_spine1
  {
    OFFSET 0 6.468898 -3.129235
    CHANNELS 3 Zrotation Xrotation Yrotation
    JOINT spine1
    {
      OFFSET 0 23.15396 4.99043
      CHANNELS 3 Zrotation Xrotation Yrotation
      JOINT spine2
      {
        OFFSET 0 20.79997 -5.064912
        CHANNELS 3 Zrotation Xrotation Yrotation
        JOINT neck
        {
          OFFSET 0 14.38658 9.616178
          CHANNELS 3 Zrotation Xrotation Yrotation
          End Site
          {
            OFFSET 0 20 0
          }
        }
      }
      JOINT right_manubrium
      {
        OFFSET -5.722621 16.35077 3.967754
        CHANNELS 3 Zrotation Xrotation Yrotation
        JOINT right_clavicle
        {
          OFFSET -13.16364 1.694482 -4.693211
          CHANNELS 3 Zrotation Xrotation Yrotation
          JOINT right_humerus
          {
            OFFSET -28.5034 -0.3100689 -2.792744
            CHANNELS 3 Zrotation Xrotation Yrotation
            JOINT right_radius
            {
              OFFSET -25.15693 0.02248979 -1.271978
              CHANNELS 3 Zrotation Xrotation Yrotation
              End Site
              {
                OFFSET -15 0 0
              }
            }
          }
        }
      }
      JOINT left_manubrium
      {
        OFFSET 5.722621 16.35077 3.967754
        CHANNELS 3 Zrotation Xrotation Yrotation
        JOINT left_clavicle
        {
          OFFSET 13.16364 1.694482 -4.693211
          CHANNELS 3 Zrotation Xrotation Yrotation
          JOINT left_humerus
          {
            OFFSET 29.39168 -1.063119 -2.237045
            CHANNELS 3 Zrotation Xrotation Yrotation
            JOINT left_radius
            {
              OFFSET 24.59957 -0.9528479 0.9047498
              CHANNELS 3 Zrotation Xrotation Yrotation
              End Site
              {
                OFFSET 15 -0 -0
              }
            }
          }
        }
      }
    }
  }
}
MOTION
Frames: 7
Frame Time: 0.0416666666667
0 103.5113 0 2.302021 -2.163392 0.2223718 1.053276 -11.04351 7.311877 -0 37.76575 -0 -6.190954 -17.62674 -2.663907 -7.787287 11.77316 -23.99314 -0 3.869109 -0 8.574274 -14.91157 26.24418 -2.549783 -3.885962 4.54116 3.109469 9.836204 -8.268687 1.623248 21.20989 6.057663 2.824367 -25.69659 9.273374 6.24889 -18.94787 11.12128 85.77513 32.71488 -20.9192 -0 0 15.89938 -7.206156 8.606377 3.285723 6.987523 -21.01569 -0.5412675 -95.06551 25.47676 22.55028 0 0 -13.1942 9.235996 17.94319 2.751684
0.2514041 103.3922 1.42411 1.888916 -1.536571 0.3078329 1.901737 -13.29749 8.296085 -0 38.17318 -0 -5.354544 -18.05775 -3.341935 -7.531161 11.79262 -23.98664 -0 4.23011 -0 7.882869 -15.93084 26.14701 -2.598087 -3.882094 4.623299 3.021876 9.825749 -8.155273 1.623889 21.29309 5.975377 2.789987 -25.54197 9.18068 6.232209 -19.0032 11.09618 85.5168 32.80617 -20.47275 -0 0 16.08472 -7.458826 8.611106 3.489421 6.903633 -20.90139 -0.4931263 -95.12201 25.4627 22.71858 0 0 -12.79188 9.1688 17.98451 2.778188
0.5022444 103.2111 2.994437 1.086648 -1.000954 0.3370503 3.174115 -16.98141 8.296657 -0 36.48444 -0 -5.452851 -15.97951 -3.770743 -6.919023 11.77758 -23.22754 -0 5.149796 -0 5.191651 -18.59911 24.97546 -2.36218 -3.501976 4.411094 3.260427 9.845552 -8.504146 1.39509 20.96604 6.492029 3.031572 -26.01823 9.29213 6.024286 -18.75474 11.2706 86.64524 33.10873 -21.77496 -0 0 14.76125 -7.359489 8.666925 3.614036 6.95798 -21.50407 -0.809725 -94.16538 25.48765 21.70287 0 0 -15.51935 9.142657 16.66015 3.223215
0.7656524 102.976 4.733117 0.5112661 -0.1763581 0.3616256 4.34218 -20.62362 8.680195 -0 34.5436 -0 -5.178901 -14.81558 -3.987994 -6.612102 11.81168 -22.65864 -0 5.611346 -0 4.810781 -20.07413 24.66138 -2.213958 -3.324156 4.240862 3.427717 9.871978 -8.770501 1.279871 20.75716 6.785649 3.182367 -26.30503 9.368171 5.937426 -18.57799 11.37021 87.4281 33.15856 -22.79456 -0 0 13.95722 -7.189084 8.702904 3.545016 7.039712 -21.91322 -1.024654 -93.64704 25.59747 21.06034 0 0 -17.18607 9.039971 15.99751 3.596013
1.043605 102.6279 6.767479 -0.07306669 0.7741746 0.4063094 5.532999 -24.71746 8.756455 -0 31.43169 -0 -5.174804 -12.92365 -3.866548 -6.33971 11.95096 -21.87077 -0 6.051583 -0 4.766749 -21.53274 24.29781 -2.061901 -3.105076 4.068363 3.599752 9.898483 -9.028026 1.153051 20.53635 7.102205 3.335929 -26.60031 9.453038 5.829916 -18.38445 11.48059 88.2175 33.2728 -23.75449 -0 0 13.07433 -7.079657 8.776932 3.552427 7.103762 -22.32335 -1.238479 -93.00715 25.57029 20.30685 0 0 -18.93574 9.069758 15.21054 3.814076
1.330789 102.1528 9.181442 -0.5742717 1.764133 0.5115046 6.588115 -28.57123 8.667716 -0 27.95468 -0 -5.348915 -10.83534 -3.461714 -6.1605 12.25214 -21.05396 -0 6.511752 -0 5.205979 -22.53235 23.98985 -1.936329 -2.932276 3.914498 3.744365 9.925599 -9.253259 1.052776 20.35365 7.356099 3.464034 -26.82964 9.516847 5.7486 -18.21216 11.57025 88.89676 33.3378 -24.59537 -0 0 12.33125 -6.987894 8.849292 3.540911 7.163651 -22.6759 -1.423679 -92.47224 25.5588 19.65411 0 0 -20.39197 9.072635 14.58195 4.018989
1.616865 101.5522 12.07646 -1.043353 2.750826 0.7177755 7.496338 -32.04145 8.303566 -0 24.22022 -0 -5.768003 -8.397392 -2.814571 -5.992378 12.71876 -20.10233 -0 7.244331 -0 5.486706 -23.16956 23.33883 -1.831613 -2.759269 3.789633 3.857586 9.951915 -9.431797 0.958789 20.20052 7.573917 3.573701 -26.99716 9.55277 5.666002 -18.05679 11.65069 89.46364 33.43676 -25.24755 -0 0 11.66408 -6.992773 8.940662 3.604491 7.194712 -22.97294 -1.584567 -91.94573 25.48455 19.04171 0 0 -21.65902 9.105592 13.9729 4.154839
